<?xml version="1.0" encoding="utf-8"?>
<!-- Generator: Adobe Illustrator 16.0.0, SVG Export Plug-In . SVG Version: 6.00 Build 0)  -->
<!DOCTYPE svg PUBLIC "-//W3C//DTD SVG 1.1//EN" "http://www.w3.org/Graphics/SVG/1.1/DTD/svg11.dtd">
<svg version="1.1" id="Layer_1" xmlns="http://www.w3.org/2000/svg" xmlns:xlink="http://www.w3.org/1999/xlink" x="0px" y="0px"
	 width="405px" height="110px" viewBox="0 0 405 110" enable-background="new 0 0 405 110" xml:space="preserve">
<polygon fill="#333F48" points="76.825,49.207 72.656,36.518 72.565,34.748 68.275,48.457 66.206,49.207 59.637,29.107 
	57.896,28.778 58.047,27.728 61.676,27.818 65.336,27.728 65.486,28.778 62.935,29.167 67.435,43.837 67.496,45.517 71.395,32.558 
	70.256,29.107 68.365,28.778 68.515,27.728 72.295,27.818 75.955,27.728 76.105,28.778 73.555,29.167 78.054,43.837 78.115,45.517 
	83.064,29.107 80.485,28.778 80.635,27.728 84.085,27.818 86.695,27.728 86.846,28.778 85.105,29.107 78.895,48.457 "/>
<g>
	<defs>
		<rect id="SVGID_1_" x="-51" y="-52" width="792" height="288"/>
	</defs>
	<clipPath id="SVGID_2_">
		<use xlink:href="#SVGID_1_"  overflow="visible"/>
	</clipPath>
	<path clip-path="url(#SVGID_2_)" fill="#333F48" d="M91.855,34.207c3.78,0,4.741,0.96,4.741,4.77v5.88c0,1.29,0.21,1.77,0.509,2.25
		h1.5l0.12,1.05l-3.87,0.75l-0.929-2.31l-3.571,2.61c-2.58,0-4.41-1.44-4.41-3.84c0-1.08,0.391-1.86,1.051-2.76l6.75-2.25v-1.5
		c0-1.8-0.15-2.88-1.771-2.88c-0.809,0-1.799,0.27-2.459,0.54l-0.51,2.37h-2.58v-2.28L91.855,34.207z M93.746,41.557l-4.351,1.8
		c-0.45,0.45-0.599,1.05-0.599,1.68c0,1.53,0.87,2.07,1.739,2.07c0.84,0,1.561-0.51,1.95-0.78l1.261-0.87V41.557z"/>
	<polygon clip-path="url(#SVGID_2_)" fill="#333F48" points="103.525,48.697 100.076,48.787 99.925,47.737 102.025,47.437 
		102.025,29.378 99.925,29.438 99.775,28.388 103.376,27.458 104.876,27.338 104.876,47.437 107.125,47.737 106.976,48.787 	"/>
	<polygon clip-path="url(#SVGID_2_)" fill="#333F48" points="121.255,48.697 119.455,48.787 113.905,41.857 113.575,41.107 
		113.575,47.437 115.226,47.737 115.075,48.787 112.226,48.697 108.776,48.787 108.625,47.737 110.726,47.437 110.726,29.378 
		108.625,29.438 108.476,28.388 112.076,27.458 113.575,27.338 113.575,40.597 114.385,40.238 119.245,35.978 118.375,35.677 
		118.375,34.628 120.865,34.718 123.115,34.628 123.266,35.677 121.676,35.978 116.006,40.568 116.666,40.957 122.455,47.437 
		123.805,47.737 123.655,48.787 	"/>
	<path clip-path="url(#SVGID_2_)" fill="#333F48" d="M127.256,41.107c0,3.419,1.83,5.85,4.979,5.85c1.2,0,2.64-0.571,3.75-1.261
		l0.48,1.14c-1.44,0.99-3.33,1.831-5.25,2.371c-3.629,0-6.9-2.58-6.9-7.29c0-4.44,2.67-6.81,6.781-7.71
		c3.959,0,5.309,2.49,5.309,5.64v1.26H127.256z M133.285,39.607c0-2.31-0.449-3.9-2.76-3.9c-1.83,0-3,1.71-3.24,4.2L133.285,39.607z
		"/>
	<path clip-path="url(#SVGID_2_)" fill="#333F48" d="M142.824,38.557l3.42-4.2h2.4v3h-2.219c-0.72,0.15-2.04,1.14-2.851,2.13
		l-0.6,0.72v7.14l3.151,0.3l-0.151,1.139l-4.349-0.089l-3.361,0.089l-0.149-1.049l2.1-0.3v-10.95l-2.1,0.18l-0.15-1.05l3.599-0.93
		l1.2-0.089L142.824,38.557z"/>
	<path clip-path="url(#SVGID_2_)" fill="#333F48" d="M161.395,27.817l5.968-0.09c6.121-0.03,9.901,3.51,9.901,9.93
		c0,6.48-3.391,10.349-10.199,11.129l-5.67-0.09l-4.051,0.09l-0.15-1.05l2.701-0.39V29.167l-2.701-0.39l0.15-1.05L161.395,27.817z
		 M163.044,29.167v17.969l3.75,0.301c4.17,0,6.989-3.75,6.989-9.39c0-5.04-2.609-9.03-7.829-9.03L163.044,29.167z"/>
	<path clip-path="url(#SVGID_2_)" fill="#333F48" d="M182.455,41.107c0,3.419,1.83,5.85,4.979,5.85c1.2,0,2.641-0.571,3.75-1.261
		l0.481,1.14c-1.441,0.99-3.33,1.831-5.25,2.371c-3.63,0-6.901-2.58-6.901-7.29c0-4.44,2.67-6.81,6.781-7.71
		c3.96,0,5.309,2.49,5.309,5.64v1.26H182.455z M188.484,39.607c0-2.31-0.45-3.9-2.76-3.9c-1.83,0-3,1.71-3.24,4.2L188.484,39.607z"
		/>
	<path clip-path="url(#SVGID_2_)" fill="#333F48" d="M197.814,48.577v5.76l3.149,0.3l-0.149,1.05l-4.351-0.09l-3.45,0.09
		l-0.149-1.05l2.099-0.3V36.458l-2.099,0.18l-0.15-1.02l3.6-0.93l1.289-0.09l0.15,2.49l3.84-2.88c3.87,0,6.119,2.64,6.119,6.99
		c0,5.099-3.058,7.409-7.529,8.01C199.344,49.208,198.504,48.966,197.814,48.577 M201.594,36.458c-0.811,0-1.77,0.54-2.88,1.38
		l-0.899,0.69v7.53c0.689,1.049,1.92,1.65,3.269,1.65c2.16,0,3.63-2.13,3.63-5.581C204.714,38.618,203.394,36.458,201.594,36.458"/>
	<path clip-path="url(#SVGID_2_)" fill="#333F48" d="M215.573,34.207c3.781,0,4.74,0.96,4.74,4.77v5.88c0,1.29,0.211,1.77,0.51,2.25
		h1.5l0.12,1.05l-3.87,0.75l-0.929-2.31l-3.571,2.61c-2.579,0-4.409-1.44-4.409-3.84c0-1.08,0.39-1.86,1.049-2.76l6.75-2.25v-1.5
		c0-1.8-0.149-2.88-1.77-2.88c-0.81,0-1.799,0.27-2.459,0.54l-0.51,2.37h-2.58v-2.28L215.573,34.207z M217.463,41.557l-4.35,1.8
		c-0.449,0.45-0.599,1.05-0.599,1.68c0,1.53,0.869,2.07,1.74,2.07c0.84,0,1.56-0.51,1.949-0.78l1.26-0.87V41.557z"/>
	<path clip-path="url(#SVGID_2_)" fill="#333F48" d="M228.354,38.557l3.42-4.2h2.4v3h-2.22c-0.72,0.15-2.039,1.14-2.85,2.13
		l-0.6,0.72v7.14l3.15,0.3l-0.15,1.139l-4.35-0.089l-3.36,0.089l-0.15-1.049l2.101-0.3v-10.95l-2.101,0.18l-0.149-1.05l3.599-0.93
		l1.199-0.089L228.354,38.557z"/>
	<path clip-path="url(#SVGID_2_)" fill="#333F48" d="M234.773,36.367v-0.51l1.05-1.05h1.95v-1.95l1.949-1.949h0.781v4.109h4.53v1.35
		h-4.5v8.79c0,0.87,0.33,1.8,1.59,1.8c0.87,0,1.53-0.3,2.37-0.72l0.509,1.02l-3.509,1.95c-3.361,0-3.81-1.2-3.81-3.9v-8.94H234.773z
		"/>
	<path clip-path="url(#SVGID_2_)" fill="#333F48" d="M266.992,48.697l-2.85,0.09l-0.15-1.05l1.5-0.3v-8.579
		c0-1.56-0.66-2.25-1.74-2.25c-0.9,0-2.01,0.6-3.06,1.349l-0.899,0.631v8.849l1.349,0.3l-0.15,1.05l-2.55-0.09l-2.7,0.09
		l-0.149-1.05l1.35-0.3v-8.579c0-1.56-0.66-2.25-1.74-2.25c-0.9,0-2.01,0.6-3.061,1.349l-0.899,0.631v8.849l1.499,0.3l-0.149,1.05
		l-2.701-0.09l-3.449,0.09l-0.15-1.05l2.099-0.3V36.488l-2.099,0.18l-0.151-1.051l3.601-0.929l1.29-0.09l0.15,2.49l4.139-2.88
		c2.91,0,3.99,0.869,4.32,2.94l4.231-2.94c3.84,0,4.469,1.44,4.469,5.249v7.98l2.25,0.3l-0.15,1.05L266.992,48.697z"/>
	<path clip-path="url(#SVGID_2_)" fill="#333F48" d="M274.493,41.107c0,3.419,1.83,5.85,4.979,5.85c1.2,0,2.641-0.571,3.75-1.261
		l0.481,1.14c-1.441,0.99-3.33,1.831-5.25,2.371c-3.63,0-6.901-2.58-6.901-7.29c0-4.44,2.67-6.81,6.781-7.71
		c3.96,0,5.309,2.49,5.309,5.64v1.26H274.493z M280.523,39.607c0-2.31-0.45-3.9-2.76-3.9c-1.83,0-3,1.71-3.24,4.2L280.523,39.607z"
		/>
	<path clip-path="url(#SVGID_2_)" fill="#333F48" d="M288.953,48.697l-3.45,0.09l-0.151-1.05l2.101-0.3V36.488l-2.101,0.18
		l-0.149-1.051l3.6-0.929l1.289-0.09l0.15,2.519l4.44-2.909c3.839,0,4.47,1.29,4.47,4.889v8.34l2.28,0.3l-0.15,1.05l-3.45-0.09
		l-2.88,0.09l-0.149-1.05l1.5-0.3v-8.579c0-1.56-0.691-2.25-1.981-2.25c-1.05,0-2.099,0.659-3.119,1.349l-0.9,0.6v8.88l1.65,0.3
		l-0.15,1.05L288.953,48.697z"/>
	<path clip-path="url(#SVGID_2_)" fill="#333F48" d="M301.343,36.367v-0.51l1.05-1.05h1.95v-1.95l1.95-1.949h0.779v4.109h4.531v1.35
		h-4.5v8.79c0,0.87,0.33,1.8,1.59,1.8c0.87,0,1.53-0.3,2.37-0.72l0.509,1.02l-3.509,1.95c-3.36,0-3.81-1.2-3.81-3.9v-8.94H301.343z"
		/>
	<path clip-path="url(#SVGID_2_)" fill="#333F48" d="M72.716,72.907c0,4.47-2.73,7.05-7.38,7.8c-3.99,0-6.689-3.09-6.689-7.17
		c0-4.5,2.729-7.05,7.378-7.829C70.016,65.708,72.716,68.827,72.716,72.907 M66.086,79.237c2.4,0,3.63-2.46,3.63-5.7
		c0-3.81-1.83-6.36-4.441-6.36c-2.429,0-3.628,2.46-3.628,5.73C61.647,76.327,63.416,79.237,66.086,79.237"/>
	<path clip-path="url(#SVGID_2_)" fill="#333F48" d="M79.466,66.458h3.75v1.41h-3.75v11.069l3.45,0.21l-0.15,1.14l-4.651-0.09
		l-3.449,0.09l-0.15-1.05l2.099-0.3V67.868h-2.638v-0.51l0.899-1.05h1.739v-0.3c0-1.8,0.571-2.97,1.651-4.2l2.519-2.85h3.781v2.4
		h-3.9l-0.57,0.81c-0.42,0.57-0.63,1.44-0.63,3.39V66.458z"/>
	<polygon clip-path="url(#SVGID_2_)" fill="#333F48" points="112.045,59.228 115.375,59.317 118.164,59.228 118.315,60.277 
		115.765,60.667 115.765,78.847 118.164,79.236 118.015,80.287 114.414,80.196 110.065,80.287 109.915,79.236 112.615,78.847 
		112.615,65.138 113.005,61.627 105.415,80.256 103.555,80.256 97.525,65.107 96.416,61.627 96.416,78.847 99.055,79.236 
		98.816,80.287 95.606,80.196 92.216,80.287 92.066,79.236 94.465,78.847 94.465,60.728 91.916,60.277 92.066,59.228 95.155,59.317 
		98.455,59.228 104.755,75.098 104.995,76.776 	"/>
	<path clip-path="url(#SVGID_2_)" fill="#333F48" d="M122.456,72.607c0,3.419,1.83,5.85,4.98,5.85c1.199,0,2.639-0.571,3.749-1.261
		l0.481,1.14c-1.441,0.99-3.33,1.831-5.25,2.371c-3.63,0-6.9-2.58-6.9-7.29c0-4.44,2.67-6.81,6.78-7.71c3.96,0,5.31,2.49,5.31,5.64
		v1.26H122.456z M128.484,71.107c0-2.31-0.449-3.9-2.76-3.9c-1.83,0-3,1.71-3.239,4.2L128.484,71.107z"/>
	<path clip-path="url(#SVGID_2_)" fill="#333F48" d="M142.135,67.777c-0.479-0.36-0.93-0.48-1.74-0.48c-2.039,0-3.6,2.28-3.6,5.55
		c0,3.21,1.74,5.61,4.68,5.61c1.14,0,2.34-0.571,3.39-1.261l0.48,1.141c-1.38,0.989-2.909,1.739-4.89,2.37
		c-3.84,0-6.689-2.52-6.689-7.14c0-4.71,3.449-6.96,7.14-7.86c1.379,0,3.239,0.69,4.139,1.5v3h-2.22L142.135,67.777z"/>
	<path clip-path="url(#SVGID_2_)" fill="#333F48" d="M151.795,78.937l1.65,0.3l-0.15,1.05l-2.85-0.09l-3.45,0.09l-0.15-1.05l2.1-0.3
		V60.848l-2.1,0.06l-0.15-1.02l3.6-0.93l1.5-0.12v9.719l4.379-2.849c3.84,0,4.471,1.439,4.471,5.249v7.98l2.25,0.3l-0.151,1.05
		l-3.449-0.09l-2.82,0.09l-0.151-1.05l1.471-0.3v-8.58c0-1.56-0.721-2.25-1.92-2.25c-0.9,0-2.07,0.66-3.18,1.35l-0.9,0.57V78.937z"
		/>
	<path clip-path="url(#SVGID_2_)" fill="#333F48" d="M170.214,65.707c3.78,0,4.74,0.96,4.74,4.77v5.88c0,1.29,0.21,1.77,0.51,2.25
		h1.5l0.119,1.05l-3.869,0.75l-0.93-2.31l-3.57,2.61c-2.58,0-4.41-1.44-4.41-3.84c0-1.08,0.391-1.86,1.05-2.76l6.75-2.25v-1.5
		c0-1.8-0.149-2.88-1.771-2.88c-0.809,0-1.798,0.27-2.458,0.54l-0.51,2.37h-2.58v-2.28L170.214,65.707z M172.104,73.057l-4.351,1.8
		c-0.449,0.45-0.599,1.05-0.599,1.68c0,1.53,0.87,2.07,1.74,2.07c0.84,0,1.561-0.51,1.95-0.78l1.26-0.87V73.057z"/>
	<path clip-path="url(#SVGID_2_)" fill="#333F48" d="M181.885,80.197l-3.45,0.09l-0.15-1.05l2.1-0.3V67.988l-2.1,0.18l-0.15-1.051
		l3.6-0.929l1.29-0.09l0.15,2.519l4.439-2.909c3.84,0,4.47,1.29,4.47,4.889v8.34l2.28,0.3l-0.149,1.05l-3.451-0.09l-2.879,0.09
		l-0.15-1.05l1.5-0.3v-8.579c0-1.56-0.69-2.25-1.981-2.25c-1.049,0-2.099,0.659-3.119,1.349l-0.9,0.6v8.88l1.65,0.3l-0.15,1.05
		L181.885,80.197z"/>
	<path clip-path="url(#SVGID_2_)" fill="#333F48" d="M199.525,80.197l-3.45,0.09l-0.151-1.05l2.101-0.3V67.988l-2.101,0.18
		l-0.149-1.05l3.6-0.93l1.5-0.12v12.869l2.25,0.3l-0.151,1.05L199.525,80.197z M198.025,59.558l2.159-0.15l0.841,0.15l0.149,1.68
		l-0.33,1.44l-2.13,0.18l-0.81-0.18l-0.18-1.68L198.025,59.558z"/>
	<path clip-path="url(#SVGID_2_)" fill="#333F48" d="M212.846,67.777c-0.48-0.36-0.931-0.48-1.74-0.48c-2.041,0-3.6,2.28-3.6,5.55
		c0,3.21,1.739,5.61,4.68,5.61c1.139,0,2.34-0.571,3.389-1.261l0.48,1.141c-1.38,0.989-2.91,1.739-4.89,2.37
		c-3.84,0-6.689-2.52-6.689-7.14c0-4.71,3.45-6.96,7.14-7.86c1.379,0,3.24,0.69,4.139,1.5v3h-2.22L212.846,67.777z"/>
	<path clip-path="url(#SVGID_2_)" fill="#333F48" d="M223.615,65.707c3.78,0,4.74,0.96,4.74,4.77v5.88c0,1.29,0.21,1.77,0.51,2.25
		h1.5l0.119,1.05l-3.869,0.75l-0.93-2.31l-3.57,2.61c-2.58,0-4.41-1.44-4.41-3.84c0-1.08,0.391-1.86,1.05-2.76l6.75-2.25v-1.5
		c0-1.8-0.149-2.88-1.771-2.88c-0.809,0-1.798,0.27-2.458,0.54l-0.51,2.37h-2.58v-2.28L223.615,65.707z M225.505,73.057l-4.351,1.8
		c-0.449,0.45-0.599,1.05-0.599,1.68c0,1.53,0.87,2.07,1.74,2.07c0.84,0,1.561-0.51,1.95-0.78l1.26-0.87V73.057z"/>
	<polygon clip-path="url(#SVGID_2_)" fill="#333F48" points="235.285,80.197 231.835,80.287 231.685,79.237 233.785,78.937 
		233.785,60.878 231.685,60.938 231.535,59.888 235.135,58.958 236.635,58.838 236.635,78.937 238.885,79.237 238.734,80.287 	"/>
	<polygon clip-path="url(#SVGID_2_)" fill="#333F48" points="263.634,59.228 263.934,64.627 262.914,64.627 261.235,60.728 
		253.284,60.638 253.284,68.618 257.485,68.498 258.684,65.348 259.735,65.348 259.434,69.098 259.735,73.146 258.684,73.146 
		257.485,69.998 253.284,69.877 253.284,78.876 261.534,78.788 263.544,74.737 264.684,74.737 263.634,80.287 251.725,80.196 
		247.584,80.287 247.435,79.236 250.135,78.847 250.135,60.667 247.435,60.277 247.584,59.228 251.725,59.317 	"/>
	<path clip-path="url(#SVGID_2_)" fill="#333F48" d="M269.635,80.197l-3.45,0.09l-0.151-1.05l2.101-0.3V67.988l-2.101,0.18
		l-0.149-1.051l3.6-0.929l1.289-0.09l0.15,2.519l4.44-2.909c3.839,0,4.47,1.29,4.47,4.889v8.34l2.28,0.3l-0.15,1.05l-3.45-0.09
		l-2.88,0.09l-0.149-1.05l1.5-0.3v-8.579c0-1.56-0.691-2.25-1.981-2.25c-1.05,0-2.099,0.659-3.119,1.349l-0.9,0.6v8.88l1.65,0.3
		l-0.15,1.05L269.635,80.197z"/>
	<path clip-path="url(#SVGID_2_)" fill="#333F48" d="M293.785,67.538l1.619-1.83h1.801v2.43h-1.801l-0.99,0.48
		c0.18,0.45,0.3,0.93,0.3,1.44c0,2.55-1.77,4.35-5.849,5.4c-0.42,0-0.811,0-1.17-0.06l-1.621,1.859c0,0.63,0.451,1.051,1.17,1.051
		h5.49c2.73,0,3.93,1.259,3.93,3.09c0,2.459-3.119,4.859-7.65,6.209c-4.349,0-6.54-1.35-6.54-4.14v-0.51l3.27-2.519
		c-2.1-0.781-2.249-1.741-2.249-3.121v-0.18l2.999-2.07c-1.889-0.659-3.119-2.099-3.119-3.959c0-2.55,1.74-4.35,5.849-5.4
		C291.174,65.708,292.824,66.397,293.785,67.538 M286.824,80.708c-1.529,1.679-1.65,2.219-1.65,2.639c0,1.41,1.621,2.49,4.08,2.49
		c2.46,0,4.56-1.59,4.56-3.6c0-1.08-0.81-1.529-2.85-1.529H286.824z M288.775,67.087c-1.621,0-2.551,1.26-2.551,3.18
		c0,1.44,0.631,3.779,3.09,3.779c1.62,0,2.551-1.109,2.551-2.849C291.865,69.637,291.234,67.087,288.775,67.087"/>
	<path clip-path="url(#SVGID_2_)" fill="#333F48" d="M302.004,80.197l-3.449,0.09l-0.151-1.05l2.1-0.3V67.988l-2.1,0.18l-0.15-1.05
		l3.601-0.93l1.5-0.12v12.869l2.249,0.3l-0.15,1.05L302.004,80.197z M300.504,59.558l2.16-0.15l0.84,0.15l0.15,1.68l-0.33,1.44
		l-2.13,0.18l-0.809-0.18l-0.18-1.68L300.504,59.558z"/>
	<path clip-path="url(#SVGID_2_)" fill="#333F48" d="M310.854,80.197l-3.45,0.09l-0.151-1.05l2.101-0.3V67.988l-2.101,0.18
		l-0.149-1.051l3.601-0.929l1.289-0.09l0.15,2.519l4.439-2.909c3.84,0,4.471,1.29,4.471,4.889v8.34l2.279,0.3l-0.15,1.05
		l-3.449-0.09l-2.881,0.09l-0.149-1.05l1.5-0.3v-8.579c0-1.56-0.691-2.25-1.98-2.25c-1.051,0-2.1,0.659-3.12,1.349l-0.9,0.6v8.88
		l1.65,0.3l-0.15,1.05L310.854,80.197z"/>
	<path clip-path="url(#SVGID_2_)" fill="#333F48" d="M327.234,72.607c0,3.419,1.83,5.85,4.98,5.85c1.199,0,2.64-0.571,3.75-1.261
		l0.48,1.14c-1.44,0.99-3.329,1.831-5.249,2.371c-3.631,0-6.901-2.58-6.901-7.29c0-4.44,2.67-6.81,6.78-7.71
		c3.961,0,5.31,2.49,5.31,5.64v1.26H327.234z M333.265,71.107c0-2.31-0.45-3.9-2.76-3.9c-1.83,0-3,1.71-3.239,4.2L333.265,71.107z"
		/>
	<path clip-path="url(#SVGID_2_)" fill="#333F48" d="M341.334,72.607c0,3.419,1.83,5.85,4.98,5.85c1.199,0,2.64-0.571,3.75-1.261
		l0.479,1.14c-1.439,0.99-3.329,1.831-5.249,2.371c-3.631,0-6.9-2.58-6.9-7.29c0-4.44,2.67-6.81,6.779-7.71
		c3.962,0,5.311,2.49,5.311,5.64v1.26H341.334z M347.364,71.107c0-2.31-0.45-3.9-2.76-3.9c-1.83,0-3,1.71-3.239,4.2L347.364,71.107z
		"/>
	<path clip-path="url(#SVGID_2_)" fill="#333F48" d="M356.904,70.057l3.419-4.2h2.4v3h-2.22c-0.721,0.15-2.04,1.14-2.851,2.13
		l-0.6,0.72v7.14l3.15,0.3l-0.15,1.139l-4.35-0.089l-3.36,0.089l-0.149-1.049l2.1-0.3v-10.95l-2.1,0.18l-0.15-1.05l3.6-0.93
		l1.2-0.089L356.904,70.057z"/>
	<path clip-path="url(#SVGID_2_)" fill="#333F48" d="M367.823,80.197l-3.449,0.09l-0.15-1.05l2.1-0.3V67.988l-2.1,0.18l-0.149-1.05
		l3.6-0.93l1.5-0.12v12.869l2.25,0.3l-0.15,1.05L367.823,80.197z M366.323,59.558l2.16-0.15l0.84,0.15l0.15,1.68l-0.33,1.44
		l-2.13,0.18l-0.81-0.18l-0.181-1.68L366.323,59.558z"/>
	<path clip-path="url(#SVGID_2_)" fill="#333F48" d="M376.673,80.197l-3.449,0.09l-0.15-1.05l2.1-0.3V67.988l-2.1,0.18l-0.149-1.051
		l3.6-0.929l1.29-0.09l0.149,2.519l4.44-2.909c3.84,0,4.47,1.29,4.47,4.889v8.34l2.279,0.3l-0.149,1.05l-3.45-0.09l-2.88,0.09
		l-0.149-1.05l1.5-0.3v-8.579c0-1.56-0.69-2.25-1.98-2.25c-1.05,0-2.099,0.659-3.12,1.349l-0.899,0.6v8.88l1.649,0.3l-0.149,1.05
		L376.673,80.197z"/>
	<path clip-path="url(#SVGID_2_)" fill="#333F48" d="M400.822,67.538l1.62-1.83h1.8v2.43h-1.8l-0.99,0.48
		c0.181,0.45,0.301,0.93,0.301,1.44c0,2.55-1.771,4.35-5.851,5.4c-0.42,0-0.81,0-1.17-0.06l-1.619,1.859
		c0,0.63,0.449,1.051,1.17,1.051h5.489c2.73,0,3.93,1.259,3.93,3.09c0,2.459-3.118,4.859-7.649,6.209c-4.35,0-6.54-1.35-6.54-4.14
		v-0.51l3.271-2.519c-2.101-0.781-2.25-1.741-2.25-3.121v-0.18l3-2.07c-1.891-0.659-3.12-2.099-3.12-3.959
		c0-2.55,1.74-4.35,5.85-5.4C398.213,65.708,399.862,66.397,400.822,67.538 M393.863,80.708c-1.529,1.679-1.65,2.219-1.65,2.639
		c0,1.41,1.621,2.49,4.08,2.49c2.46,0,4.56-1.59,4.56-3.6c0-1.08-0.81-1.529-2.85-1.529H393.863z M395.812,67.087
		c-1.619,0-2.55,1.26-2.55,3.18c0,1.44,0.63,3.779,3.09,3.779c1.62,0,2.55-1.109,2.55-2.849
		C398.902,69.637,398.272,67.087,395.812,67.087"/>
	<path clip-path="url(#SVGID_2_)" fill="#333F48" d="M64.197,104.617c-3.44,0-5.602-2.36-5.602-6.161
		c0-3.061,1.301-6.602,5.602-8.042l1.681-0.56c1.98,0,3.501,0.86,4.241,1.52l-0.1,2.881h-1.06l-0.42-1.939
		c-0.58-0.58-1.701-1.081-3.621-1.381c-2.721,1.181-4.121,3.741-4.121,7.123c0,3.601,1.961,5.381,4.26,5.521
		c1.001-0.38,1.561-0.7,2.201-1.26l1.18-2.381h1.101l-0.78,3.36L64.197,104.617z"/>
	<path clip-path="url(#SVGID_2_)" fill="#333F48" d="M79.058,98.536c0,2.44-1.4,4.661-3.861,5.562l-1.221,0.46
		c-1.72,0-3.259-1.4-3.259-3.981c0-2.439,1.4-4.661,3.86-5.561l1.22-0.46C77.517,94.556,79.058,95.955,79.058,98.536
		 M72.617,100.297c0,2.24,1.02,3.101,2.14,3.301c1.821-0.601,2.401-3.102,2.401-4.781c0-2.241-1.061-3.101-2.182-3.301
		C73.156,96.115,72.617,98.616,72.617,100.297"/>
	<path clip-path="url(#SVGID_2_)" fill="#333F48" d="M86.458,101.816l0.38,0.48c-0.6,0.48-1.641,1.18-2.58,1.76l-0.801,0.501
		c-1.78,0-3.301-1.36-3.301-3.881c0-2.48,1.461-4.641,4.081-5.682l1.101-0.44c0.519,0,1.58,0.381,2.16,0.721l-0.96,1.62
		c-0.7-0.5-1.601-0.96-2.241-1.24c-1.42,0.761-2.24,2.36-2.24,4.441c0,1.94,1,2.76,2.081,2.96
		C84.777,102.797,85.958,102.157,86.458,101.816"/>
	<path clip-path="url(#SVGID_2_)" fill="#333F48" d="M88.236,91.635l-0.221-0.6l3.522-1.101l0.48,0.461l-1.441,8.241l0.381-0.1
		l3.621-3.78h1.92l-0.401,1.86h-1.219c-0.681,0.18-1.201,0.46-1.88,1.02l-1.401,1.161l0.539,0.199l2.182,4.101l1.72-1.08l0.34,0.5
		l-2.841,2.041l-0.78-0.48l-2.281-4.941l-0.88,5.122h-1.7l2.301-13.163L88.236,91.635z"/>
	<path clip-path="url(#SVGID_2_)" fill="#333F48" d="M100.837,96.735l-0.64,2.16l2.68-4.14h1.602l-0.421,1.84h-0.88
		c-0.54,0.32-1.34,1.061-1.92,1.8l-0.781,1.001l-0.88,4.86h-1.7l1.48-8.321l-1.86,0.66l-0.22-0.56l3.28-1.481l0.521,0.54
		L100.837,96.735z"/>
	<path clip-path="url(#SVGID_2_)" fill="#333F48" d="M110.597,101.798l0.36,0.5c-0.5,0.419-1.64,1.239-2.6,1.8l-0.78,0.46
		c-1.96,0-3.301-1.5-3.301-3.682c0-2.52,1.44-4.94,4.001-5.9l1.12-0.42c1.261,0.22,2.2,0.739,2.2,2.1c0,0.46-0.12,1.021-0.359,1.721
		l-5.041,1.601c-0.021,0.18-0.021,0.359-0.021,0.52c0,1.78,1.121,2.562,2.061,2.581
		C108.938,102.776,109.918,102.257,110.597,101.798 M106.277,99.276l3.26-1.34c0.14-0.44,0.2-0.741,0.2-1.08
		c0-0.901-0.48-1.241-1.08-1.341C107.216,96.115,106.537,97.695,106.277,99.276"/>
	<polygon clip-path="url(#SVGID_2_)" fill="#333F48" points="112.816,91.675 112.576,91.055 116.097,89.954 116.577,90.415 
		114.356,103.057 116.018,102.017 116.357,102.517 113.517,104.558 112.497,103.918 114.756,91.135 	"/>
	<polygon clip-path="url(#SVGID_2_)" fill="#333F48" points="118.196,91.675 117.956,91.055 121.476,89.954 121.958,90.415 
		119.736,103.057 121.396,102.017 121.736,102.517 118.896,104.558 117.876,103.918 120.136,91.135 	"/>
	<path clip-path="url(#SVGID_2_)" fill="#333F48" d="M137.018,93.755h-1.08l-0.1-1.84c-0.541-0.48-1.58-1.06-2.64-1.06
		c-1.461,0.46-2.101,1.2-2.101,2.2c0,1.181,0.739,1.841,1.58,2.481l1.82,1.399c0.921,0.7,1.861,1.641,1.861,3.441
		c0,1.62-1.061,2.9-2.801,3.521l-2.04,0.72c-1.86,0-3.36-0.58-4.261-1.261l0.481-2.8h1.279v1.66c0.541,0.64,1.9,1.46,3.081,1.46
		c1.501-0.399,2.161-1.38,2.161-2.6c0-1.381-0.64-1.981-1.56-2.682l-2.041-1.58c-0.96-0.739-1.641-1.601-1.641-2.961
		c0-1.479,1.021-2.58,2.981-3.301l1.82-0.66c1.801,0,3.002,0.501,3.681,1.041L137.018,93.755z"/>
	<path clip-path="url(#SVGID_2_)" fill="#333F48" d="M143.896,101.816l0.381,0.48c-0.601,0.48-1.641,1.18-2.581,1.76l-0.8,0.501
		c-1.781,0-3.301-1.36-3.301-3.881c0-2.48,1.46-4.641,4.08-5.682l1.102-0.44c0.519,0,1.58,0.381,2.16,0.721l-0.961,1.62
		c-0.699-0.5-1.6-0.96-2.24-1.24c-1.42,0.761-2.24,2.36-2.24,4.441c0,1.94,1,2.76,2.08,2.96
		C142.216,102.797,143.396,102.157,143.896,101.816"/>
	<path clip-path="url(#SVGID_2_)" fill="#333F48" d="M147.035,104.257h-1.699l2.32-13.123l-1.941,0.54l-0.241-0.62l3.522-1.1
		l0.48,0.46l-1,5.722l-0.3,0.62l3.421-2.2c1.6,0,2.139,1.08,1.94,2.24l-1.12,6.262l1.66-1.041l0.34,0.501l-2.841,2.04l-1.02-0.641
		l1.141-6.421c0.139-0.76,0.06-1.341-0.641-1.341c-0.58,0-1.36,0.42-1.88,0.78l-0.96,0.66L147.035,104.257z"/>
	<path clip-path="url(#SVGID_2_)" fill="#333F48" d="M163.656,98.536c0,2.44-1.4,4.661-3.86,5.562l-1.22,0.46
		c-1.72,0-3.261-1.4-3.261-3.981c0-2.439,1.4-4.661,3.861-5.561l1.221-0.46C162.116,94.556,163.656,95.955,163.656,98.536
		 M157.215,100.297c0,2.24,1.021,3.101,2.141,3.301c1.82-0.601,2.4-3.102,2.4-4.781c0-2.241-1.061-3.101-2.18-3.301
		C157.756,96.115,157.215,98.616,157.215,100.297"/>
	<path clip-path="url(#SVGID_2_)" fill="#333F48" d="M173.097,98.536c0,2.44-1.4,4.661-3.861,5.562l-1.221,0.46
		c-1.72,0-3.259-1.4-3.259-3.981c0-2.439,1.4-4.661,3.86-5.561l1.22-0.46C171.556,94.556,173.097,95.955,173.097,98.536
		 M166.656,100.297c0,2.24,1.02,3.101,2.14,3.301c1.821-0.601,2.401-3.102,2.401-4.781c0-2.241-1.061-3.101-2.182-3.301
		C167.195,96.115,166.656,98.616,166.656,100.297"/>
	<polygon clip-path="url(#SVGID_2_)" fill="#333F48" points="174.315,91.675 174.075,91.055 177.595,89.954 178.076,90.415 
		175.855,103.057 177.516,102.017 177.855,102.517 175.016,104.558 173.996,103.918 176.255,91.135 	"/>
	<path clip-path="url(#SVGID_2_)" fill="#333F48" d="M192.216,98.536c0,2.44-1.4,4.661-3.861,5.562l-1.22,0.46
		c-1.72,0-3.26-1.4-3.26-3.981c0-2.439,1.4-4.661,3.861-5.561l1.22-0.46C190.675,94.556,192.216,95.955,192.216,98.536
		 M185.775,100.297c0,2.24,1.02,3.101,2.141,3.301c1.82-0.601,2.4-3.102,2.4-4.781c0-2.241-1.061-3.101-2.181-3.301
		C186.315,96.115,185.775,98.616,185.775,100.297"/>
	<path clip-path="url(#SVGID_2_)" fill="#333F48" d="M192.575,107.318c0.44-0.48,0.74-1.181,0.82-1.66l1.681-9.603h-1.941l0.1-0.36
		l0.74-0.66h1.281l0.179-1.08c0.18-1.061,0.561-1.92,1.301-2.4l2.54-1.601h1.641l-0.321,1.581h-2.48c-0.46,0.44-0.78,1.2-0.86,1.72
		l-0.321,1.84h2.262l-0.221,0.961h-2.22l-1.54,8.902c-0.181,1-0.601,1.939-1.321,2.399l-2.48,1.602h-1.401l0.34-1.641H192.575z"/>
	<polygon clip-path="url(#SVGID_2_)" fill="#333F48" points="215.717,90.234 215.717,93.655 215.037,93.655 214.157,91.234 
		209.176,91.174 208.336,96.495 211.137,96.415 212.357,94.315 212.957,94.315 212.257,96.936 212.076,99.517 211.477,99.517 
		210.996,97.416 208.196,97.336 207.236,103.338 212.656,103.277 214.197,100.576 214.957,100.576 214.098,104.277 206.155,104.218 
		203.414,104.277 203.414,103.577 205.235,103.317 207.176,91.174 205.415,90.915 205.615,90.234 208.376,90.294 	"/>
	<path clip-path="url(#SVGID_2_)" fill="#333F48" d="M223.076,97.496c0.141-0.76,0.061-1.34-0.641-1.34
		c-0.58,0-1.359,0.42-1.88,0.779l-0.959,0.66l-1.181,6.661h-1.7l1.48-8.321l-1.86,0.66l-0.22-0.56l3.28-1.481l0.62,0.641
		l-0.179,0.961l-0.281,0.6l3.421-2.201c1.6,0,2.141,1.08,1.94,2.241l-1.119,6.261l1.66-1.039l0.34,0.5l-2.841,2.041l-1.021-0.642
		L223.076,97.496z"/>
	<path clip-path="url(#SVGID_2_)" fill="#333F48" d="M226.395,108.958l0.28-1.64h3.681c0.62-0.42,1.28-1.441,1.461-2.581l0.319-2
		l0.341-0.86l-2.842,2.68c-1.38-0.26-2.699-1.18-2.699-3.801c0-2.38,1.08-4.52,3.48-5.601l1.34-0.601c0.78,0,2.32,0.36,3.401,0.94
		l-1.741,9.683c-0.16,0.859-0.98,1.561-2.2,2.48l-1.74,1.3H226.395z M230.136,103.057l2.28-1.84l0.881-4.802
		c-0.521-0.4-1.661-0.7-2.521-0.7c-1.241,0.881-1.94,2.821-1.94,4.661C228.836,101.938,229.455,102.737,230.136,103.057"/>
	<path clip-path="url(#SVGID_2_)" fill="#333F48" d="M236.475,96.596l-0.22-0.56l3.28-1.481l0.621,0.641l-1.381,7.861l1.661-1.041
		l0.339,0.502l-2.839,2.039l-1.021-0.64l1.421-7.981L236.475,96.596z M239.295,90.494l0.58-0.1l1.121,0.1v0.96l-0.34,0.861
		l-0.541,0.1l-1.259-0.1l0.08-1.001L239.295,90.494z"/>
	<path clip-path="url(#SVGID_2_)" fill="#333F48" d="M248.856,97.496c0.14-0.76,0.06-1.34-0.64-1.34c-0.58,0-1.361,0.42-1.881,0.779
		l-0.96,0.66l-1.18,6.661h-1.7l1.48-8.321l-1.86,0.66l-0.221-0.56l3.281-1.481l0.62,0.641l-0.18,0.961l-0.28,0.6l3.42-2.201
		c1.602,0,2.141,1.08,1.942,2.241l-1.121,6.261l1.66-1.039l0.341,0.5l-2.841,2.041l-1.02-0.642L248.856,97.496z"/>
	<path clip-path="url(#SVGID_2_)" fill="#333F48" d="M258.796,101.798l0.36,0.5c-0.5,0.419-1.641,1.239-2.601,1.8l-0.78,0.46
		c-1.96,0-3.301-1.5-3.301-3.682c0-2.52,1.44-4.94,4.001-5.9l1.12-0.42c1.261,0.22,2.201,0.739,2.201,2.1
		c0,0.46-0.12,1.021-0.36,1.721l-5.041,1.601c-0.021,0.18-0.021,0.359-0.021,0.52c0,1.78,1.122,2.562,2.061,2.581
		C257.136,102.776,258.117,102.257,258.796,101.798 M254.476,99.276l3.261-1.34c0.139-0.44,0.199-0.741,0.199-1.08
		c0-0.901-0.48-1.241-1.08-1.341C255.416,96.115,254.735,97.695,254.476,99.276"/>
	<path clip-path="url(#SVGID_2_)" fill="#333F48" d="M267.216,101.798l0.36,0.5c-0.5,0.419-1.64,1.239-2.6,1.8l-0.78,0.46
		c-1.96,0-3.301-1.5-3.301-3.682c0-2.52,1.44-4.94,4.001-5.9l1.12-0.42c1.261,0.22,2.2,0.739,2.2,2.1c0,0.46-0.12,1.021-0.359,1.721
		l-5.041,1.601c-0.021,0.18-0.021,0.359-0.021,0.52c0,1.78,1.121,2.562,2.061,2.581
		C265.557,102.776,266.538,102.257,267.216,101.798 M262.896,99.276l3.26-1.34c0.14-0.44,0.2-0.741,0.2-1.08
		c0-0.901-0.48-1.241-1.08-1.341C263.835,96.115,263.156,97.695,262.896,99.276"/>
	<path clip-path="url(#SVGID_2_)" fill="#333F48" d="M272.656,96.735l-0.641,2.16l2.681-4.14h1.601l-0.42,1.84h-0.881
		c-0.539,0.32-1.34,1.061-1.92,1.8l-0.78,1.001l-0.88,4.86h-1.701l1.48-8.321l-1.859,0.66l-0.221-0.56l3.281-1.481l0.52,0.54
		L272.656,96.735z"/>
	<path clip-path="url(#SVGID_2_)" fill="#333F48" d="M277.016,96.596l-0.221-0.56l3.281-1.481l0.619,0.641l-1.38,7.861l1.661-1.041
		l0.34,0.502l-2.841,2.039l-1.02-0.64l1.42-7.981L277.016,96.596z M279.836,90.494l0.58-0.1l1.12,0.1v0.96l-0.341,0.861l-0.539,0.1
		l-1.26-0.1l0.08-1.001L279.836,90.494z"/>
	<path clip-path="url(#SVGID_2_)" fill="#333F48" d="M289.396,97.496c0.141-0.76,0.061-1.34-0.641-1.34
		c-0.58,0-1.359,0.42-1.88,0.779l-0.959,0.66l-1.181,6.661h-1.7l1.48-8.321l-1.86,0.66l-0.22-0.56l3.28-1.481l0.62,0.641
		l-0.179,0.961l-0.281,0.6l3.421-2.201c1.6,0,2.141,1.08,1.94,2.241l-1.119,6.261l1.66-1.039l0.34,0.5l-2.841,2.041l-1.021-0.642
		L289.396,97.496z"/>
	<path clip-path="url(#SVGID_2_)" fill="#333F48" d="M292.715,108.958l0.279-1.64h3.682c0.619-0.42,1.279-1.441,1.46-2.581l0.319-2
		l0.341-0.86l-2.841,2.68c-1.381-0.26-2.7-1.18-2.7-3.801c0-2.38,1.08-4.52,3.48-5.601l1.341-0.601c0.779,0,2.32,0.36,3.4,0.94
		l-1.74,9.683c-0.16,0.859-0.98,1.561-2.201,2.48l-1.74,1.3H292.715z M296.455,103.057l2.281-1.84l0.88-4.802
		c-0.52-0.4-1.661-0.7-2.52-0.7c-1.241,0.881-1.941,2.821-1.941,4.661C295.155,101.938,295.775,102.737,296.455,103.057"/>
	<rect x="23.926" y="20.021" clip-path="url(#SVGID_2_)" fill="#BF5700" width="0.046" height="0.016"/>
	<path clip-path="url(#SVGID_2_)" fill="#BF5700" d="M29.375,15.495c-1.138-0.174-2.215-0.34-3.189-0.34
		c-0.522,0-0.978,0.05-1.386,0.149l-0.228-6.358V7.891c0.45-0.188,0.995-0.276,1.686-0.276c0.889,0,1.904,0.149,2.98,0.307
		c0.946,0.139,1.918,0.276,2.917,0.34l0.271,7.601C31.403,15.806,30.375,15.651,29.375,15.495 M18.524,15.495
		c-1.001,0.156-2.03,0.311-3.053,0.368l0.273-7.601c0.998-0.064,1.97-0.201,2.916-0.34c1.076-0.158,2.092-0.307,2.981-0.307
		c0.691,0,1.236,0.088,1.684,0.276v1.055l-0.227,6.358c-0.408-0.099-0.863-0.149-1.387-0.149
		C20.738,15.155,19.662,15.321,18.524,15.495 M34.676,11.01V9.565h-0.891V7.097h-0.603c-1.275,0-2.542-0.187-3.77-0.366
		c-1.119-0.164-2.177-0.321-3.154-0.321c-0.919,0-1.678,0.145-2.309,0.442c-0.63-0.297-1.39-0.442-2.308-0.442
		c-0.977,0-2.035,0.157-3.155,0.321c-1.227,0.179-2.496,0.366-3.771,0.366h-0.601v2.468h-0.892v1.445h0.892v1.957h-0.881v1.445
		h0.881v2.68h0.601c1.363,0,2.699-0.207,3.992-0.406c1.092-0.168,2.123-0.328,3.004-0.328c0.711,0,1.244,0.103,1.657,0.318v0.001
		h1.162v-0.001c0.413-0.215,0.947-0.318,1.656-0.318c0.883,0,1.914,0.16,3.006,0.328c1.292,0.199,2.63,0.406,3.99,0.406h0.603v-2.68
		h0.881v-1.445h-0.881V11.01H34.676z"/>
	<path clip-path="url(#SVGID_2_)" fill="#BF5700" d="M18.688,9.014c-0.06,0.009-0.118,0.018-0.178,0.026
		c-0.566,0.083-1.141,0.167-1.722,0.234l-0.034,0.974c0.643-0.07,1.274-0.163,1.896-0.255c0.013-0.002,0.025-0.003,0.038-0.006
		V9.014z"/>
	<path clip-path="url(#SVGID_2_)" fill="#BF5700" d="M19.41,8.911v0.973c1.025-0.143,1.965-0.245,2.781-0.178l0.033-0.96
		C21.355,8.681,20.402,8.776,19.41,8.911"/>
	<path clip-path="url(#SVGID_2_)" fill="#BF5700" d="M18.688,13.423c-0.06,0.009-0.118,0.018-0.178,0.026
		c-0.618,0.091-1.246,0.183-1.881,0.252l-0.035,0.973c0.698-0.073,1.383-0.173,2.056-0.272l0.038-0.005V13.423z"/>
	<path clip-path="url(#SVGID_2_)" fill="#BF5700" d="M19.41,13.32v0.973c0.959-0.133,1.846-0.232,2.623-0.189l0.033-0.959
		C21.24,13.103,20.343,13.193,19.41,13.32"/>
	<path clip-path="url(#SVGID_2_)" fill="#BF5700" d="M18.538,11.24v0.975l0.111-0.018c1.288-0.187,2.466-0.361,3.462-0.295
		l0.034-0.957C21.043,10.877,19.812,11.053,18.538,11.24"/>
	<path clip-path="url(#SVGID_2_)" fill="#BF5700" d="M17.815,11.344c-0.366,0.053-0.735,0.102-1.107,0.145l-0.036,0.972
		c0.386-0.041,0.767-0.092,1.143-0.143V11.344z"/>
	<path clip-path="url(#SVGID_2_)" fill="#BF5700" d="M28.049,8.854c-0.834-0.103-1.637-0.164-2.376-0.108l0.034,0.96
		c0.697-0.057,1.487,0.009,2.342,0.119V8.854z"/>
	<path clip-path="url(#SVGID_2_)" fill="#BF5700" d="M31.11,9.273c-0.581-0.066-1.156-0.15-1.723-0.233
		c-0.207-0.031-0.413-0.061-0.616-0.089v0.972c0.156,0.023,0.317,0.045,0.477,0.07c0.622,0.092,1.254,0.184,1.897,0.255L31.11,9.273
		z"/>
	<path clip-path="url(#SVGID_2_)" fill="#BF5700" d="M27.85,11.035c-0.732-0.083-1.439-0.131-2.098-0.09l0.035,0.957
		c0.623-0.041,1.315,0.01,2.063,0.102V11.035z"/>
	<path clip-path="url(#SVGID_2_)" fill="#BF5700" d="M31.189,11.488c-0.607-0.068-1.21-0.156-1.802-0.244
		c-0.274-0.039-0.546-0.079-0.815-0.117v0.972c0.221,0.032,0.447,0.065,0.676,0.098c0.647,0.096,1.306,0.191,1.976,0.264
		L31.189,11.488z"/>
	<path clip-path="url(#SVGID_2_)" fill="#BF5700" d="M29.295,14.409c0.657,0.097,1.327,0.193,2.009,0.265l-0.034-0.973
		c-0.636-0.069-1.264-0.161-1.882-0.252c-0.031-0.005-0.062-0.009-0.093-0.014V14.409z"/>
	<path clip-path="url(#SVGID_2_)" fill="#BF5700" d="M28.572,13.332c-0.963-0.133-1.89-0.23-2.742-0.187l0.035,0.959
		c0.801-0.043,1.715,0.061,2.707,0.202V13.332z"/>
	<path clip-path="url(#SVGID_2_)" fill="#BF5700" d="M22.695,28.882l1.254-3.134l1.254,3.134l3.37,0.225l-2.595,2.162l0.828,3.272
		l-2.857-1.8l-2.858,1.8l0.83-3.272l-2.595-2.162L22.695,28.882z M15.061,27.771L15.061,27.771l5.445,3.96l-2.097,6.451
		c0.002,0.012,0.007,0.025,0.017,0.032c0.01,0.008,0.022,0.008,0.033,0.008l5.491-3.992l5.488,3.989
		c0.012,0.003,0.024,0,0.033-0.005c0.018-0.014,0.022-0.038,0.012-0.058l-2.088-6.427l5.443-3.956V27.77
		c0.026-0.009,0.041-0.034,0.034-0.06c-0.008-0.023-0.036-0.036-0.063-0.028V27.68h-6.73l-2.08-6.402h-0.003
		c0-0.028-0.021-0.05-0.046-0.05c-0.026,0-0.046,0.022-0.046,0.05H23.9l-2.078,6.402h-6.733l-0.002,0.004
		c-0.025-0.009-0.052,0.004-0.06,0.028C15.02,27.735,15.034,27.762,15.061,27.771"/>
	<path clip-path="url(#SVGID_2_)" fill="#BF5700" d="M37.465,35.862c-0.49,0.542-1.128,0.918-1.832,1.088
		c0.1-0.721,0.41-1.394,0.9-1.934c0.496-0.545,1.133-0.923,1.834-1.09C38.268,34.645,37.957,35.32,37.465,35.862 M34.83,31.627
		c-0.093-0.729,0.033-1.459,0.36-2.107c0.482,0.542,0.791,1.214,0.886,1.943c0.097,0.724-0.03,1.455-0.357,2.102
		C35.237,33.024,34.926,32.351,34.83,31.627 M36.289,26.115c-0.136-0.722-0.053-1.459,0.233-2.125c0.512,0.512,0.862,1.166,1,1.887
		c0.14,0.719,0.058,1.455-0.231,2.123C36.778,27.486,36.428,26.833,36.289,26.115 M39.768,27.724
		c0.051,0.725-0.115,1.448-0.485,2.081c-0.367,0.632-0.912,1.132-1.567,1.445c-0.051-0.727,0.114-1.449,0.482-2.082
		C38.57,28.533,39.115,28.035,39.768,27.724 M34.434,41.412c-0.592,0.43-1.287,0.664-2.017,0.688
		c0.246-0.688,0.689-1.282,1.282-1.709c0.594-0.432,1.291-0.666,2.02-0.686C35.471,40.389,35.028,40.982,34.434,41.412
		 M32.731,36.725c0.06-0.734,0.334-1.42,0.787-1.987c0.359,0.628,0.523,1.351,0.467,2.082c-0.057,0.731-0.331,1.421-0.786,1.987
		C32.84,38.176,32.674,37.455,32.731,36.725 M30.83,41.633c-0.205,0.701-0.616,1.318-1.177,1.779
		c-0.223-0.689-0.235-1.43-0.029-2.133c0.209-0.705,0.621-1.322,1.181-1.78C31.027,40.186,31.037,40.928,30.83,41.633
		 M31.932,44.811c-0.383,0.618-0.94,1.109-1.611,1.406c-0.464,0.208-0.958,0.313-1.465,0.313c-0.219,0-0.436-0.018-0.649-0.058
		c0.383-0.619,0.939-1.107,1.608-1.406C30.484,44.768,31.221,44.682,31.932,44.811 M25.643,45.096
		c0.351-0.649,0.881-1.168,1.523-1.5c0.074,0.718-0.066,1.445-0.416,2.092c-0.345,0.645-0.874,1.165-1.519,1.5
		C25.156,46.467,25.297,45.739,25.643,45.096 M17.506,46.217c-0.669-0.297-1.226-0.788-1.609-1.406
		c0.711-0.129,1.447-0.043,2.118,0.255c0.668,0.299,1.224,0.787,1.607,1.406C18.91,46.603,18.173,46.515,17.506,46.217
		 M16.998,41.631c-0.207-0.703-0.195-1.445,0.027-2.132c0.558,0.458,0.97,1.073,1.179,1.778c0.206,0.705,0.195,1.446-0.028,2.135
		C17.614,42.951,17.203,42.334,16.998,41.631 M20.662,43.596c0.643,0.332,1.172,0.851,1.522,1.496
		c0.347,0.647,0.488,1.375,0.414,2.096c-0.645-0.335-1.174-0.855-1.52-1.5C20.729,45.041,20.588,44.314,20.662,43.596
		 M13.395,41.412c-0.594-0.43-1.037-1.023-1.284-1.707c0.728,0.02,1.424,0.254,2.018,0.686c0.594,0.427,1.037,1.021,1.283,1.709
		C14.682,42.076,13.987,41.842,13.395,41.412 M14.311,34.738c0.453,0.567,0.726,1.253,0.787,1.986
		c0.057,0.731-0.11,1.452-0.469,2.083c-0.455-0.566-0.728-1.256-0.785-1.988C13.787,36.089,13.951,35.366,14.311,34.738
		 M10.363,35.862c-0.49-0.542-0.802-1.217-0.902-1.936c0.702,0.167,1.34,0.545,1.833,1.09c0.491,0.54,0.803,1.213,0.902,1.934
		C11.491,36.78,10.854,36.404,10.363,35.862 M10.113,31.25c-0.654-0.313-1.201-0.813-1.568-1.445
		c-0.369-0.633-0.535-1.356-0.484-2.081c0.652,0.311,1.199,0.809,1.57,1.444C9.998,29.801,10.164,30.523,10.113,31.25
		 M10.306,25.875c0.139-0.721,0.489-1.373,1.001-1.885c0.287,0.666,0.369,1.403,0.232,2.123c-0.138,0.72-0.488,1.373-1.002,1.887
		C10.248,27.332,10.166,26.596,10.306,25.875 M11.752,31.461c0.096-0.727,0.405-1.399,0.887-1.941
		c0.326,0.648,0.453,1.378,0.359,2.105c-0.095,0.726-0.405,1.399-0.887,1.94C11.782,32.918,11.656,32.187,11.752,31.461
		 M37.467,32.374c1.123-0.338,2.064-1.077,2.65-2.085c0.586-1.006,0.768-2.191,0.51-3.335l-0.113-0.503l-0.494,0.148
		c-0.569,0.169-1.092,0.443-1.545,0.803c0.105-0.559,0.104-1.138-0.006-1.707c-0.221-1.148-0.863-2.16-1.81-2.849l-0.417-0.305
		l-0.274,0.437c-0.621,0.989-0.843,2.168-0.625,3.318c0.22,1.14,0.858,2.145,1.796,2.837c-0.174,0.392-0.292,0.804-0.35,1.226
		c-0.278-0.761-0.753-1.445-1.392-1.972l-0.399-0.33l-0.301,0.42c-0.677,0.949-0.97,2.113-0.822,3.273
		c0.153,1.155,0.733,2.206,1.637,2.953l0.021,0.015c-0.265,0.36-0.474,0.754-0.625,1.172c-0.113-0.804-0.437-1.57-0.955-2.219
		l-0.32-0.405l-0.381,0.35c-0.861,0.789-1.387,1.865-1.48,3.033c-0.092,1.162,0.261,2.306,0.99,3.224l0.018,0.023
		c-0.334,0.295-0.62,0.639-0.853,1.016c0.055-0.812-0.103-1.629-0.475-2.371l-0.231-0.461l-0.444,0.265
		c-1.006,0.594-1.744,1.54-2.076,2.661c-0.328,1.121-0.22,2.312,0.303,3.361l0.014,0.026c-0.389,0.22-0.739,0.496-1.045,0.818
		c0.221-0.783,0.234-1.615,0.023-2.416l-0.131-0.5l-0.488,0.164c-1.106,0.375-2.022,1.148-2.581,2.178
		c-0.534,0.993-0.68,2.142-0.419,3.239c-0.147,0.102-0.302,0.207-0.463,0.316c-0.16-0.109-0.315-0.214-0.463-0.316
		c0.261-1.097,0.117-2.246-0.42-3.241c-0.556-1.028-1.472-1.801-2.58-2.176l-0.488-0.164l-0.131,0.5
		c-0.211,0.801-0.197,1.633,0.024,2.416c-0.306-0.322-0.656-0.598-1.044-0.818l0.012-0.026c0.525-1.049,0.632-2.24,0.304-3.361
		c-0.333-1.121-1.07-2.067-2.076-2.661l-0.443-0.265l-0.232,0.461c-0.373,0.742-0.529,1.559-0.474,2.371
		c-0.235-0.379-0.52-0.721-0.854-1.016l0.018-0.023c0.73-0.918,1.082-2.062,0.99-3.227c-0.094-1.165-0.619-2.241-1.481-3.03
		l-0.38-0.35l-0.321,0.405c-0.517,0.649-0.841,1.415-0.955,2.219c-0.149-0.418-0.358-0.812-0.624-1.172l0.022-0.015
		c0.903-0.747,1.484-1.798,1.635-2.953c0.15-1.16-0.142-2.324-0.822-3.273l-0.301-0.42l-0.397,0.33
		c-0.641,0.527-1.115,1.211-1.393,1.974c-0.057-0.424-0.175-0.836-0.35-1.228c0.938-0.692,1.576-1.697,1.796-2.838
		c0.217-1.15-0.004-2.328-0.625-3.317l-0.275-0.437l-0.417,0.305c-0.946,0.689-1.589,1.701-1.809,2.847
		c-0.11,0.571-0.112,1.149-0.006,1.709c-0.453-0.36-0.977-0.634-1.544-0.803l-0.494-0.148l-0.114,0.503
		c-0.257,1.144-0.077,2.329,0.509,3.335c0.586,1.008,1.527,1.747,2.651,2.085l0.435,0.13c0.045,0.366,0.137,0.726,0.269,1.074
		c-0.622-0.398-1.333-0.641-2.083-0.701l-0.514-0.042l-0.008,0.517c-0.015,1.171,0.406,2.292,1.188,3.155
		c0.781,0.865,1.855,1.394,3.023,1.492l0.453,0.038c0.119,0.351,0.283,0.684,0.485,0.993c-0.508-0.19-1.045-0.29-1.598-0.29
		c-0.195,0-0.392,0.013-0.585,0.035l-0.512,0.067l0.1,0.504c0.227,1.152,0.871,2.162,1.814,2.847
		c0.784,0.571,1.716,0.871,2.691,0.871c0.191,0,0.385-0.011,0.574-0.035l0.451-0.058c0.192,0.318,0.419,0.609,0.682,0.873
		c-0.732-0.11-1.483-0.045-2.19,0.201l-0.488,0.17l0.203,0.474c0.459,1.078,1.299,1.934,2.361,2.408
		c0.591,0.263,1.216,0.396,1.86,0.396c0.514,0,1.021-0.086,1.51-0.254l0.359-0.125c0.6,0.51,1.277,1.018,2.209,1.656
		c-0.426,0.28-0.895,0.586-1.42,0.922l0.905,0.563c0.512-0.33,0.965-0.627,1.378-0.902c0.413,0.275,0.866,0.572,1.378,0.902
		l0.905-0.563c-0.524-0.336-0.994-0.642-1.418-0.922c0.93-0.638,1.608-1.146,2.208-1.656l0.361,0.125
		c0.488,0.168,0.994,0.254,1.508,0.254c0.644,0,1.269-0.133,1.859-0.394c1.065-0.476,1.902-1.332,2.361-2.41l0.204-0.474
		l-0.489-0.17c-0.707-0.246-1.458-0.311-2.188-0.199c0.261-0.264,0.49-0.557,0.68-0.875l0.452,0.058
		c0.19,0.024,0.382,0.035,0.574,0.035h0.002c0.972,0,1.904-0.3,2.689-0.871c0.943-0.685,1.587-1.695,1.814-2.847l0.099-0.504
		l-0.511-0.067c-0.194-0.022-0.391-0.035-0.585-0.035c-0.552,0-1.09,0.1-1.598,0.29c0.201-0.309,0.365-0.642,0.486-0.993
		l0.451-0.038c1.169-0.098,2.243-0.627,3.023-1.492c0.782-0.863,1.204-1.984,1.188-3.155l-0.007-0.517l-0.514,0.042
		c-0.749,0.06-1.461,0.303-2.083,0.701c0.133-0.348,0.224-0.708,0.269-1.074L37.467,32.374z"/>
	<path clip-path="url(#SVGID_2_)" fill="#BF5700" d="M37.591,42.555c-0.981,1.436-2.104,2.768-3.458,4.064
		c-4.178,3.837-8.867,5.956-10.188,6.506c-1.322-0.55-6.011-2.669-10.189-6.506c-1.353-1.296-2.476-2.628-3.458-4.064
		c-4.744-6.946-5.366-15.002-5.37-21.261l0.005-0.001l19.017-1.056l19.012,1.055C42.957,27.552,42.334,35.608,37.591,42.555
		 M5.941,5.128C9.477,4.738,17.425,3.946,23.95,3.946c6.523,0,14.47,0.792,18.006,1.183l0.99,13.93H23.95H4.953L5.941,5.128z
		 M44.891,3.519l-0.844-0.106C43.935,3.398,32.703,2,23.955,2H23.95h-0.007C15.196,2,3.965,3.398,3.852,3.413L3.008,3.519v15.54H3
		v2.169c0,6.546,0.649,15.008,5.707,22.415c1.043,1.525,2.228,2.933,3.647,4.302l-0.001,0.002c0.01,0.008,0.018,0.015,0.028,0.023
		c2.744,2.641,6.371,5.132,11.559,8.023V56c0.002-0.003,0.003-0.003,0.005-0.003c0.002,0,0.003,0,0.005,0.003v-0.007
		c5.187-2.891,8.814-5.382,11.558-8.023c0.01-0.008,0.019-0.015,0.028-0.023v-0.002c1.418-1.369,2.603-2.777,3.646-4.302
		c5.059-7.407,5.707-15.869,5.707-22.415v-0.309l0.002-0.001V3.519z"/>
	<path clip-path="url(#SVGID_2_)" fill="#BF5700" d="M74.94,19.074l-1.88,0.06l-0.1-0.7l0.979-0.2v-5.722
		c0-1.04-0.479-1.5-1.279-1.5c-0.601,0-1.381,0.44-2.121,0.9l-0.6,0.381v5.941l1.1,0.2l-0.1,0.7l-1.9-0.06l-2.101,0.06l-0.101-0.7
		l1.202-0.2V5.991l-0.721,0.12l-4.061-0.06v12.123l2.301,0.26l-0.1,0.7l-3.241-0.06l-3.36,0.06l-0.101-0.7l2.401-0.26V6.051
		l-3.001,0.06l-0.92,2.501h-0.779V5.071l5.74,0.04l4.922-0.04l2.14-0.24h0.68v6.481l2.92-1.9c2.56,0,2.98,0.96,2.98,3.501v5.321
		l1.501,0.2l-0.1,0.7L74.94,19.074z"/>
	<path clip-path="url(#SVGID_2_)" fill="#BF5700" d="M80.136,14.013c0,2.28,1.22,3.901,3.321,3.901c0.8,0,1.76-0.38,2.5-0.84
		l0.32,0.76c-0.96,0.66-2.221,1.22-3.5,1.58c-2.421,0-4.601-1.72-4.601-4.861c0-2.96,1.78-4.541,4.521-5.141
		c2.641,0,3.54,1.661,3.54,3.761v0.84H80.136z M84.157,13.013c0-1.541-0.3-2.601-1.841-2.601c-1.221,0-2,1.141-2.16,2.801
		L84.157,13.013z"/>
	<path clip-path="url(#SVGID_2_)" fill="#BF5700" d="M100.058,5.792l0.101-0.7l2.56,0.06l2.34-0.06l0.1,0.7l-1.701,0.26v8.162
		c0,2.6-1.059,4.341-5.041,5.261c-3.94,0-5.34-2.12-5.34-5.301V6.052l-1.801-0.26l0.099-0.7l2.762,0.06l2.74-0.06l0.1,0.7l-1.7,0.26
		v8.422c0,2.48,1.06,3.901,3.341,3.901c2.08,0,3.24-1.401,3.24-3.961V6.052L100.058,5.792z"/>
	<path clip-path="url(#SVGID_2_)" fill="#BF5700" d="M107.856,19.074l-2.3,0.06l-0.1-0.7l1.4-0.2v-7.302l-1.4,0.121l-0.101-0.701
		l2.4-0.62l0.862-0.06l0.099,1.68l2.961-1.94c2.561,0,2.981,0.86,2.981,3.261v5.561l1.519,0.2l-0.099,0.7l-2.301-0.06l-1.92,0.06
		l-0.1-0.7l1-0.2v-5.722c0-1.04-0.461-1.5-1.32-1.5c-0.7,0-1.4,0.44-2.08,0.9l-0.601,0.401v5.921l1.101,0.2l-0.101,0.7
		L107.856,19.074z"/>
	<path clip-path="url(#SVGID_2_)" fill="#BF5700" d="M119.316,19.075l-2.301,0.06l-0.099-0.7l1.4-0.201v-7.301l-1.4,0.12l-0.1-0.7
		l2.4-0.62l1-0.08v8.581l1.5,0.201l-0.099,0.7L119.316,19.075z M118.316,5.312l1.439-0.1l0.561,0.1l0.1,1.12l-0.219,0.96
		l-1.421,0.12l-0.54-0.12l-0.12-1.12L118.316,5.312z"/>
	<polygon clip-path="url(#SVGID_2_)" fill="#BF5700" points="127.337,17.834 129.758,10.592 128.838,10.393 128.938,9.692 
		130.697,9.752 132.358,9.692 132.458,10.393 131.178,10.592 127.897,18.814 126.437,19.415 122.956,10.592 121.716,10.393 
		121.816,9.692 124.116,9.752 126.217,9.692 126.316,10.393 124.996,10.592 127.177,16.454 	"/>
	<path clip-path="url(#SVGID_2_)" fill="#BF5700" d="M134.417,14.013c0,2.28,1.22,3.901,3.321,3.901c0.8,0,1.761-0.38,2.501-0.84
		l0.319,0.76c-0.96,0.66-2.22,1.22-3.501,1.58c-2.42,0-4.6-1.72-4.6-4.861c0-2.96,1.78-4.541,4.52-5.141
		c2.641,0,3.541,1.661,3.541,3.761v0.84H134.417z M138.438,13.013c0-1.541-0.301-2.601-1.841-2.601c-1.22,0-2,1.141-2.16,2.801
		L138.438,13.013z"/>
	<path clip-path="url(#SVGID_2_)" fill="#BF5700" d="M144.996,12.313l2.281-2.801h1.6v2.001h-1.481c-0.479,0.1-1.359,0.76-1.9,1.42
		l-0.399,0.48v4.761l2.1,0.2l-0.099,0.76l-2.902-0.06l-2.24,0.06l-0.101-0.7l1.401-0.2v-7.301l-1.401,0.12l-0.099-0.7l2.4-0.621
		l0.801-0.06L144.996,12.313z"/>
	<path clip-path="url(#SVGID_2_)" fill="#BF5700" d="M155.177,10.833c-0.2-0.12-0.8-0.44-1.521-0.44c-0.78,0-1.52,0.42-1.52,1.18
		c0,0.64,0.501,1.04,1.4,1.5l1.54,0.781c1.341,0.68,1.881,1.44,1.881,2.58c0,1.8-1.461,2.481-3.76,2.981
		c-1.22,0-2.521-0.601-3.041-0.9l-0.38-2.261h1.28l0.681,1.661c0.419,0.279,1,0.5,1.639,0.5c1.061,0,1.601-0.681,1.601-1.521
		c0-0.78-0.42-1.12-1.461-1.66l-1.58-0.82c-0.86-0.44-1.68-1.201-1.68-2.321c0-1.4,1.3-2.18,3.621-2.68c1.08,0,2.24,0.48,2.821,0.9
		v2h-1.061L155.177,10.833z"/>
	<path clip-path="url(#SVGID_2_)" fill="#BF5700" d="M160.696,19.075l-2.3,0.06l-0.1-0.7l1.4-0.201v-7.301l-1.4,0.12l-0.101-0.7
		l2.4-0.62l1.001-0.08v8.581l1.5,0.201l-0.099,0.7L160.696,19.075z M159.696,5.312l1.44-0.1l0.561,0.1l0.1,1.12l-0.221,0.96
		l-1.42,0.12l-0.54-0.12l-0.12-1.12L159.696,5.312z"/>
	<path clip-path="url(#SVGID_2_)" fill="#BF5700" d="M170.617,23.815v-2h1.721l1.98-3.021l-0.801,0.24l-3.361-8.422h-3.019v6.101
		c0,0.581,0.219,1.201,1.059,1.201c0.58,0,1.2-0.281,1.761-0.56l0.34,0.68l-2.521,1.38c-2.241,0-2.54-0.8-2.54-2.6v-5.962h-1.941
		v-0.34l0.701-0.7h1.3v-1.3l1.3-1.301h0.52v2.501h6.302l0.099,0.68l-1.32,0.2l2.221,5.861l0.16,1.381l2.48-7.242l-0.92-0.2l0.1-0.7
		l1.76,0.06l1.66-0.06l0.101,0.7l-1.281,0.2l-3.24,8.182l-2.24,5.041H170.617z"/>
	<path clip-path="url(#SVGID_2_)" fill="#BF5700" d="M192.938,14.213c0,2.981-1.82,4.701-4.922,5.201
		c-2.66,0-4.461-2.06-4.461-4.781c0-3,1.82-4.701,4.922-5.221C191.137,9.412,192.938,11.493,192.938,14.213 M188.516,18.434
		c1.602,0,2.421-1.64,2.421-3.801c0-2.54-1.22-4.241-2.96-4.241c-1.621,0-2.421,1.641-2.421,3.821
		C185.556,16.494,186.737,18.434,188.516,18.434"/>
	<path clip-path="url(#SVGID_2_)" fill="#BF5700" d="M197.436,9.912h2.501v0.94h-2.501v7.382l2.301,0.14l-0.1,0.76l-3.101-0.06
		l-2.3,0.06l-0.101-0.7l1.401-0.2v-7.382h-1.76v-0.34l0.599-0.7h1.161v-0.2c0-1.2,0.38-1.98,1.1-2.801l1.681-1.9h2.519v1.601h-2.599
		l-0.381,0.54c-0.279,0.38-0.42,0.96-0.42,2.26V9.912z"/>
	<polygon clip-path="url(#SVGID_2_)" fill="#BF5700" points="215.236,19.134 211.996,19.074 208.634,19.134 208.535,18.434 
		210.935,18.174 210.935,6.051 207.935,6.091 207.014,8.632 206.234,8.632 206.234,5.091 211.976,5.151 217.737,5.091 
		217.737,8.632 216.957,8.632 216.037,6.091 213.036,6.051 213.036,18.174 215.336,18.434 	"/>
	<path clip-path="url(#SVGID_2_)" fill="#BF5700" d="M218.795,14.013c0,2.28,1.22,3.901,3.321,3.901c0.8,0,1.761-0.38,2.501-0.84
		l0.319,0.76c-0.96,0.66-2.22,1.22-3.501,1.58c-2.42,0-4.6-1.72-4.6-4.861c0-2.96,1.78-4.541,4.52-5.141
		c2.641,0,3.541,1.661,3.541,3.761v0.84H218.795z M222.816,13.013c0-1.541-0.301-2.601-1.841-2.601c-1.22,0-2,1.141-2.16,2.801
		L222.816,13.013z"/>
	<polygon clip-path="url(#SVGID_2_)" fill="#BF5700" points="229.455,18.434 229.355,19.134 227.795,19.074 225.734,19.134 
		225.635,18.434 227.035,18.234 229.996,14.593 227.095,10.612 225.854,10.413 225.955,9.692 228.256,9.752 230.156,9.692 
		230.256,10.413 229.476,10.612 230.955,12.833 231.115,13.353 233.016,10.612 232.036,10.413 232.137,9.692 233.696,9.752 
		235.757,9.692 235.857,10.413 234.416,10.612 231.775,13.813 234.916,18.234 236.156,18.434 236.057,19.134 233.756,19.074 
		231.855,19.134 231.756,18.434 232.576,18.234 230.796,15.653 230.636,15.193 228.516,18.234 	"/>
	<path clip-path="url(#SVGID_2_)" fill="#BF5700" d="M240.795,9.413c2.522,0,3.161,0.64,3.161,3.18v3.921
		c0,0.861,0.14,1.18,0.34,1.501h1.001l0.08,0.7l-2.581,0.5l-0.62-1.541l-2.381,1.741c-1.72,0-2.94-0.96-2.94-2.56
		c0-0.721,0.261-1.241,0.7-1.841l4.501-1.5v-1.001c0-1.2-0.101-1.92-1.181-1.92c-0.539,0-1.199,0.18-1.64,0.36l-0.34,1.58h-1.72
		v-1.52L240.795,9.413z M242.056,14.313l-2.901,1.2c-0.299,0.3-0.4,0.7-0.4,1.12c0,1.02,0.58,1.381,1.16,1.381
		c0.56,0,1.04-0.341,1.3-0.52l0.841-0.581V14.313z"/>
	<path clip-path="url(#SVGID_2_)" fill="#BF5700" d="M251.576,10.833c-0.201-0.12-0.801-0.44-1.521-0.44
		c-0.78,0-1.52,0.42-1.52,1.18c0,0.64,0.5,1.04,1.4,1.5l1.54,0.781c1.341,0.68,1.88,1.44,1.88,2.58c0,1.8-1.46,2.481-3.759,2.981
		c-1.221,0-2.522-0.601-3.041-0.9l-0.381-2.261h1.281l0.68,1.661c0.42,0.279,1,0.5,1.64,0.5c1.061,0,1.6-0.681,1.6-1.521
		c0-0.78-0.42-1.12-1.46-1.66l-1.58-0.82c-0.861-0.44-1.681-1.201-1.681-2.321c0-1.4,1.301-2.18,3.621-2.68
		c1.08,0,2.24,0.48,2.821,0.9v2h-1.061L251.576,10.833z"/>
	<path clip-path="url(#SVGID_2_)" fill="#BF5700" d="M263.436,9.413c2.52,0,3.16,0.64,3.16,3.18v3.921
		c0,0.861,0.141,1.18,0.34,1.501h1l0.08,0.7l-2.58,0.5l-0.62-1.541l-2.381,1.741c-1.719,0-2.94-0.96-2.94-2.56
		c0-0.721,0.26-1.241,0.7-1.841l4.501-1.5v-1.001c0-1.2-0.1-1.92-1.18-1.92c-0.541,0-1.201,0.18-1.64,0.36l-0.34,1.58h-1.721v-1.52
		L263.436,9.413z M264.695,14.313l-2.9,1.2c-0.301,0.3-0.401,0.7-0.401,1.12c0,1.02,0.58,1.381,1.16,1.381
		c0.561,0,1.041-0.341,1.301-0.52l0.84-0.581V14.313z"/>
	<path clip-path="url(#SVGID_2_)" fill="#BF5700" d="M267.914,10.853v-0.34l0.701-0.7h1.3v-1.3l1.3-1.301h0.52v2.741h3.021v0.9h-3
		v5.861c0,0.58,0.22,1.201,1.059,1.201c0.58,0,1.021-0.201,1.581-0.48l0.34,0.68l-2.341,1.3c-2.241,0-2.54-0.8-2.54-2.601v-5.961
		H267.914z"/>
	<path clip-path="url(#SVGID_2_)" fill="#BF5700" d="M283.195,14.433l-1.301,3.741l1.74,0.26l-0.099,0.7l-2.401-0.06l-2.14,0.06
		l-0.1-0.7l1.56-0.22l4.961-12.962l1.2-0.341l5.22,13.303l1.561,0.22l-0.1,0.7l-2.76-0.06l-2.64,0.06l-0.101-0.7l1.701-0.26
		l-1.361-3.741H283.195z M285.855,8.212l-0.141-1.08l-2.2,6.361h4.261L285.855,8.212z"/>
	<path clip-path="url(#SVGID_2_)" fill="#BF5700" d="M301.896,16.514c0,0.86,0.101,1.18,0.24,1.5h1l0.08,0.701l-2.581,0.5
		l-0.559-1.621l-2.901,1.821c-2.64,0-3.081-0.941-3.081-3.261v-5.221l-1.4,0.1l-0.1-0.78l2.401-0.52l1-0.08v6.661
		c0,1.04,0.44,1.5,1.42,1.5c0.621,0,1.42-0.5,2.181-1l0.4-0.26v-5.621l-1.201,0.1l-0.099-0.78l2.2-0.52l1-0.08V16.514z"/>
	<path clip-path="url(#SVGID_2_)" fill="#BF5700" d="M309.516,10.833c-0.201-0.12-0.801-0.44-1.521-0.44
		c-0.78,0-1.52,0.42-1.52,1.18c0,0.64,0.5,1.04,1.4,1.5l1.54,0.781c1.341,0.68,1.88,1.44,1.88,2.58c0,1.8-1.46,2.481-3.759,2.981
		c-1.221,0-2.522-0.601-3.041-0.9l-0.381-2.261h1.281l0.68,1.661c0.42,0.279,1,0.5,1.64,0.5c1.061,0,1.6-0.681,1.6-1.521
		c0-0.78-0.42-1.12-1.46-1.66l-1.58-0.82c-0.861-0.44-1.681-1.201-1.681-2.321c0-1.4,1.301-2.18,3.621-2.68
		c1.08,0,2.24,0.48,2.821,0.9v2h-1.061L309.516,10.833z"/>
	<path clip-path="url(#SVGID_2_)" fill="#BF5700" d="M311.934,10.853v-0.34l0.701-0.7h1.3v-1.3l1.3-1.301h0.52v2.741h3.021v0.9h-3
		v5.861c0,0.58,0.22,1.201,1.059,1.201c0.58,0,1.021-0.201,1.581-0.48l0.34,0.68l-2.341,1.3c-2.241,0-2.54-0.8-2.54-2.601v-5.961
		H311.934z"/>
	<path clip-path="url(#SVGID_2_)" fill="#BF5700" d="M322.314,19.075l-2.301,0.06l-0.099-0.7l1.4-0.201v-7.301l-1.4,0.12l-0.101-0.7
		l2.4-0.62l1.001-0.08v8.581l1.5,0.201l-0.099,0.7L322.314,19.075z M321.314,5.312l1.439-0.1l0.561,0.1l0.1,1.12l-0.22,0.96
		l-1.421,0.12l-0.539-0.12l-0.121-1.12L321.314,5.312z"/>
	<path clip-path="url(#SVGID_2_)" fill="#BF5700" d="M328.014,19.074l-2.301,0.06l-0.099-0.7l1.4-0.2v-7.302l-1.4,0.121l-0.1-0.701
		l2.4-0.62l0.86-0.06l0.1,1.68l2.96-1.94c2.561,0,2.982,0.86,2.982,3.261v5.561l1.521,0.2l-0.1,0.7l-2.3-0.06l-1.921,0.06
		l-0.101-0.7l1.001-0.2v-5.722c0-1.04-0.46-1.5-1.32-1.5c-0.7,0-1.4,0.44-2.081,0.9l-0.6,0.401v5.921l1.1,0.2l-0.1,0.7
		L328.014,19.074z"/>
</g>
</svg>
